<?xml version="1.0" standalone="no"?>
<!DOCTYPE svg PUBLIC "-//W3C//DTD SVG 20010904//EN"
 "http://www.w3.org/TR/2001/REC-SVG-20010904/DTD/svg10.dtd">
<svg version="1.0" xmlns="http://www.w3.org/2000/svg"
 width="400.000000pt" height="400.000000pt" viewBox="0 0 400.000000 400.000000"
 preserveAspectRatio="xMidYMid meet">

<g transform="translate(0.000000,400.000000) scale(0.100000,-0.100000)"
fill="#000000" stroke="none">
<path d="M775 2935 c-49 -17 -75 -49 -120 -140 -115 -238 -69 -493 106 -590
49 -27 63 -30 144 -30 85 0 95 2 183 43 123 56 245 85 339 80 39 -2 74 -5 76
-8 2 -3 1 -43 -2 -90 l-6 -85 -56 -68 c-67 -81 -116 -177 -135 -266 -17 -83
-17 -109 1 -195 23 -107 66 -189 138 -261 75 -74 151 -116 285 -153 88 -24
113 -27 267 -27 143 0 184 4 258 22 238 61 385 195 432 394 40 171 -2 328
-129 484 -50 60 -56 73 -56 114 0 25 -4 63 -9 84 -8 31 -6 39 9 47 51 27 240
1 362 -52 148 -62 179 -70 248 -66 112 8 204 72 255 175 71 145 26 426 -88
547 -42 44 -98 60 -143 41 -47 -19 -63 -51 -75 -146 -5 -46 -16 -90 -23 -97
-19 -19 -44 -4 -50 29 -3 16 -9 42 -12 59 -3 16 -18 43 -33 59 -52 56 -117 52
-158 -8 -19 -29 -23 -47 -23 -117 0 -78 -2 -84 -20 -84 -24 0 -40 35 -40 87 0
47 -54 103 -99 103 -70 0 -105 -40 -114 -131 -7 -76 -30 -117 -74 -136 -45
-18 -71 -12 -132 32 -86 62 -154 87 -252 93 -127 7 -227 -24 -323 -100 -30
-24 -49 -31 -83 -31 -73 0 -103 42 -118 167 -9 66 -47 106 -102 106 -67 0
-113 -54 -113 -133 0 -38 -21 -63 -46 -53 -13 5 -14 16 -9 59 13 102 -35 187
-107 187 -49 0 -105 -63 -114 -128 -7 -56 -22 -76 -48 -66 -18 7 -22 19 -35
122 -11 81 -26 106 -78 128 -18 8 -34 14 -35 14 -2 -1 -21 -7 -43 -15z m74
-64 c12 -12 21 -41 26 -87 9 -90 26 -129 64 -149 61 -31 114 8 131 95 12 61
34 92 64 88 33 -5 48 -45 41 -116 -8 -87 18 -131 78 -132 59 0 97 46 97 119 0
43 20 71 50 71 31 0 50 -28 50 -74 0 -86 48 -163 116 -188 l32 -11 -34 -56
c-19 -31 -34 -61 -34 -66 0 -7 -41 -11 -112 -11 -131 1 -215 -19 -349 -83
-103 -48 -141 -56 -210 -42 -202 43 -271 297 -149 548 30 61 79 113 106 113 8
0 22 -8 33 -19z m2367 0 c20 -12 42 -43 66 -92 91 -188 83 -375 -22 -480 -85
-85 -191 -99 -307 -40 -144 72 -298 108 -415 97 -66 -6 -69 -5 -78 18 -5 14
-21 44 -36 67 -21 33 -23 43 -12 50 7 5 17 9 21 9 21 0 69 45 87 81 11 21 23
66 27 99 6 65 19 83 54 78 27 -4 36 -20 44 -80 13 -97 93 -141 151 -83 22 22
24 31 23 105 -2 65 1 83 16 100 10 11 23 20 28 20 22 0 57 -44 57 -72 0 -46
26 -95 59 -113 77 -39 141 36 141 168 0 34 6 53 20 67 25 25 37 25 76 1z"/>
</g>
</svg>
